# xmcd CD database file
#
# Track frame offsets:
#	150
#	20538
#	39151
#	58158
#	81416
#	102858
#	122976
#	145848
#	162494
#	186099
#	202545
#	224965
#
# Disc length: 3285 seconds
#
# Revision: 0
# Processed by: cddbd v1.5PL3 Copyright (c) Steve Scherf et al.
# Submitted via: CDex 1.51
#
DISCID=ad0cd30c
DTITLE=koda kumi - feel_my_mind
DYEAR=1900
DGENRE=Rock
TTITLE0=Break it down
TTITLE1=Crazy 4 U
TTITLE2=Rock Your Body
TTITLE3=Rain
TTITLE4=Without Your Love
TTITLE5=Talk to you
TTITLE6=華
TTITLE7=Get Out The Way
TTITLE8=Sweet love…
TTITLE9=Gentle Words
TTITLE10=magic
TTITLE11=COME WITH ME
EXTD=
EXTT0=
EXTT1=
EXTT2=
EXTT3=
EXTT4=
EXTT5=
EXTT6=
EXTT7=
EXTT8=
EXTT9=
EXTT10=
EXTT11=
PLAYORDER=
